<svg width="25" height="24" viewBox="0 0 25 24" fill="none" xmlns="http://www.w3.org/2000/svg">
<path d="M18.033 8.39963H6.03356C5.71531 8.39963 5.4101 8.52605 5.18507 8.75108C4.96003 8.97612 4.83361 9.28133 4.83361 9.59958C4.83361 9.91782 4.96003 10.223 5.18507 10.4481C5.4101 10.6731 5.71531 10.7995 6.03356 10.7995H18.033C18.3513 10.7995 18.6565 10.6731 18.8815 10.4481C19.1066 10.223 19.233 9.91782 19.233 9.59958C19.233 9.28133 19.1066 8.97612 18.8815 8.75108C18.6565 8.52605 18.3513 8.39963 18.033 8.39963ZM13.2332 13.1994H6.03356C5.71531 13.1994 5.4101 13.3258 5.18507 13.5509C4.96003 13.7759 4.83361 14.0811 4.83361 14.3994C4.83361 14.7176 4.96003 15.0228 5.18507 15.2479C5.4101 15.4729 5.71531 15.5993 6.03356 15.5993H13.2332C13.5515 15.5993 13.8567 15.4729 14.0817 15.2479C14.3068 15.0228 14.4332 14.7176 14.4332 14.3994C14.4332 14.0811 14.3068 13.7759 14.0817 13.5509C13.8567 13.3258 13.5515 13.1994 13.2332 13.1994ZM12.0333 0C10.4575 0 8.89713 0.310375 7.44129 0.913405C5.98545 1.51643 4.66264 2.40031 3.54839 3.51456C1.29805 5.7649 0.0338222 8.81701 0.0338222 11.9995C0.023332 14.7703 0.982731 17.4575 2.7457 19.5951L0.345808 21.995C0.179307 22.1638 0.066516 22.378 0.0216691 22.6108C-0.0231779 22.8436 0.00192819 23.0844 0.0938194 23.303C0.193484 23.5189 0.355053 23.7003 0.558015 23.8242C0.760977 23.9481 0.996181 24.0089 1.23377 23.9989H12.0333C15.2157 23.9989 18.2679 22.7347 20.5182 20.4844C22.7685 18.234 24.0328 15.1819 24.0328 11.9995C24.0328 8.81701 22.7685 5.7649 20.5182 3.51456C18.2679 1.26423 15.2157 0 12.0333 0ZM12.0333 21.599H4.12564L5.24159 20.4831C5.46508 20.2583 5.59053 19.9541 5.59053 19.6371C5.59053 19.3201 5.46508 19.016 5.24159 18.7912C3.67036 17.2217 2.69191 15.156 2.47294 12.946C2.25397 10.736 2.80803 8.51843 4.04072 6.67113C5.2734 4.82383 7.10846 3.46108 9.23323 2.81504C11.358 2.16901 13.6411 2.27966 15.6934 3.12816C17.7457 3.97665 19.4404 5.51049 20.4886 7.46834C21.5369 9.42619 21.8739 11.6869 21.4422 13.8654C21.0106 16.0439 19.8369 18.0053 18.1213 19.4154C16.4056 20.8256 14.2541 21.5973 12.0333 21.599Z" fill="white"/>
</svg>
